<svg width="1600" height="220" viewBox="0 0 1600 220" fill="none" xmlns="http://www.w3.org/2000/svg"
     role="img" aria-label="Engineering DNA — technology stack matrix">
  <rect width="1600" height="220" rx="0" fill="#FFFFFF"/>
  <rect width="1600" height="220" stroke="#E2E8F0" stroke-width="1.2" fill="none"/>
  <line x1="0" y1="40" x2="1600" y2="40" stroke="#CBD5E1" stroke-width="1" opacity="0.1"/>
<line x1="0" y1="80" x2="1600" y2="80" stroke="#CBD5E1" stroke-width="1" opacity="0.1"/>
<line x1="0" y1="120" x2="1600" y2="120" stroke="#CBD5E1" stroke-width="1" opacity="0.1"/>
<line x1="0" y1="160" x2="1600" y2="160" stroke="#CBD5E1" stroke-width="1" opacity="0.1"/>
<line x1="0" y1="200" x2="1600" y2="200" stroke="#CBD5E1" stroke-width="1" opacity="0.1"/>
  <rect x="20" y="16" width="280" height="22" rx="11" fill="#0D94881a" stroke="#0D948855"/><text x="160" y="31" text-anchor="middle" font-family="IBM Plex Mono,JetBrains Mono,ui-monospace,SFMono-Regular,Menlo,Monaco,Consolas,monospace" font-size="10" letter-spacing="0.22em" fill="#0D9488">SYSTEMS CORE</text><text x="20" y="63" font-family="IBM Plex Mono,JetBrains Mono,ui-monospace,SFMono-Regular,Menlo,Monaco,Consolas,monospace" font-size="11.5" letter-spacing="0.1em" fill="#1E293B">Python</text><rect x="20" y="68" width="276" height="4" rx="2" fill="#CBD5E1" opacity="0.4"/><rect x="20" y="68" width="0" height="4" rx="2" fill="#0D9488" opacity="0.85"><animate attributeName="width" from="0" to="253.9" dur="1.5s" begin="0.00s" fill="freeze" calcMode="spline" keySplines="0.4 0 0.2 1"/></rect><text x="20" y="95" font-family="IBM Plex Mono,JetBrains Mono,ui-monospace,SFMono-Regular,Menlo,Monaco,Consolas,monospace" font-size="11.5" letter-spacing="0.1em" fill="#1E293B">TypeScript</text><rect x="20" y="100" width="276" height="4" rx="2" fill="#CBD5E1" opacity="0.4"/><rect x="20" y="100" width="0" height="4" rx="2" fill="#0D9488" opacity="0.85"><animate attributeName="width" from="0" to="242.9" dur="1.5s" begin="0.08s" fill="freeze" calcMode="spline" keySplines="0.4 0 0.2 1"/></rect><text x="20" y="127" font-family="IBM Plex Mono,JetBrains Mono,ui-monospace,SFMono-Regular,Menlo,Monaco,Consolas,monospace" font-size="11.5" letter-spacing="0.1em" fill="#1E293B">C++17</text><rect x="20" y="132" width="276" height="4" rx="2" fill="#CBD5E1" opacity="0.4"/><rect x="20" y="132" width="0" height="4" rx="2" fill="#0D9488" opacity="0.85"><animate attributeName="width" from="0" to="226.3" dur="1.5s" begin="0.16s" fill="freeze" calcMode="spline" keySplines="0.4 0 0.2 1"/></rect><text x="20" y="159" font-family="IBM Plex Mono,JetBrains Mono,ui-monospace,SFMono-Regular,Menlo,Monaco,Consolas,monospace" font-size="11.5" letter-spacing="0.1em" fill="#1E293B">Bash</text><rect x="20" y="164" width="276" height="4" rx="2" fill="#CBD5E1" opacity="0.4"/><rect x="20" y="164" width="0" height="4" rx="2" fill="#0D9488" opacity="0.85"><animate attributeName="width" from="0" to="179.4" dur="1.5s" begin="0.24s" fill="freeze" calcMode="spline" keySplines="0.4 0 0.2 1"/></rect><line x1="320" y1="12" x2="320" y2="208" stroke="#E2E8F0" stroke-width="1" opacity="0.4"/><rect x="340" y="16" width="280" height="22" rx="11" fill="#2563EB1a" stroke="#2563EB55"/><text x="480" y="31" text-anchor="middle" font-family="IBM Plex Mono,JetBrains Mono,ui-monospace,SFMono-Regular,Menlo,Monaco,Consolas,monospace" font-size="10" letter-spacing="0.22em" fill="#2563EB">BACKEND</text><text x="340" y="63" font-family="IBM Plex Mono,JetBrains Mono,ui-monospace,SFMono-Regular,Menlo,Monaco,Consolas,monospace" font-size="11.5" letter-spacing="0.1em" fill="#1E293B">FastAPI</text><rect x="340" y="68" width="276" height="4" rx="2" fill="#CBD5E1" opacity="0.4"/><rect x="340" y="68" width="0" height="4" rx="2" fill="#2563EB" opacity="0.85"><animate attributeName="width" from="0" to="248.4" dur="1.5s" begin="0.12s" fill="freeze" calcMode="spline" keySplines="0.4 0 0.2 1"/></rect><text x="340" y="95" font-family="IBM Plex Mono,JetBrains Mono,ui-monospace,SFMono-Regular,Menlo,Monaco,Consolas,monospace" font-size="11.5" letter-spacing="0.1em" fill="#1E293B">PostgreSQL</text><rect x="340" y="100" width="276" height="4" rx="2" fill="#CBD5E1" opacity="0.4"/><rect x="340" y="100" width="0" height="4" rx="2" fill="#2563EB" opacity="0.85"><animate attributeName="width" from="0" to="234.6" dur="1.5s" begin="0.20s" fill="freeze" calcMode="spline" keySplines="0.4 0 0.2 1"/></rect><text x="340" y="127" font-family="IBM Plex Mono,JetBrains Mono,ui-monospace,SFMono-Regular,Menlo,Monaco,Consolas,monospace" font-size="11.5" letter-spacing="0.1em" fill="#1E293B">Flask</text><rect x="340" y="132" width="276" height="4" rx="2" fill="#CBD5E1" opacity="0.4"/><rect x="340" y="132" width="0" height="4" rx="2" fill="#2563EB" opacity="0.85"><animate attributeName="width" from="0" to="198.7" dur="1.5s" begin="0.28s" fill="freeze" calcMode="spline" keySplines="0.4 0 0.2 1"/></rect><text x="340" y="159" font-family="IBM Plex Mono,JetBrains Mono,ui-monospace,SFMono-Regular,Menlo,Monaco,Consolas,monospace" font-size="11.5" letter-spacing="0.1em" fill="#1E293B">HTTPX</text><rect x="340" y="164" width="276" height="4" rx="2" fill="#CBD5E1" opacity="0.4"/><rect x="340" y="164" width="0" height="4" rx="2" fill="#2563EB" opacity="0.85"><animate attributeName="width" from="0" to="215.3" dur="1.5s" begin="0.36s" fill="freeze" calcMode="spline" keySplines="0.4 0 0.2 1"/></rect><text x="340" y="191" font-family="IBM Plex Mono,JetBrains Mono,ui-monospace,SFMono-Regular,Menlo,Monaco,Consolas,monospace" font-size="11.5" letter-spacing="0.1em" fill="#1E293B">Redis</text><rect x="340" y="196" width="276" height="4" rx="2" fill="#CBD5E1" opacity="0.4"/><rect x="340" y="196" width="0" height="4" rx="2" fill="#2563EB" opacity="0.85"><animate attributeName="width" from="0" to="151.8" dur="1.5s" begin="0.44s" fill="freeze" calcMode="spline" keySplines="0.4 0 0.2 1"/></rect><line x1="640" y1="12" x2="640" y2="208" stroke="#E2E8F0" stroke-width="1" opacity="0.4"/><rect x="660" y="16" width="280" height="22" rx="11" fill="#6D28D91a" stroke="#6D28D955"/><text x="800" y="31" text-anchor="middle" font-family="IBM Plex Mono,JetBrains Mono,ui-monospace,SFMono-Regular,Menlo,Monaco,Consolas,monospace" font-size="10" letter-spacing="0.22em" fill="#6D28D9">FRONTEND</text><text x="660" y="63" font-family="IBM Plex Mono,JetBrains Mono,ui-monospace,SFMono-Regular,Menlo,Monaco,Consolas,monospace" font-size="11.5" letter-spacing="0.1em" fill="#1E293B">React</text><rect x="660" y="68" width="276" height="4" rx="2" fill="#CBD5E1" opacity="0.4"/><rect x="660" y="68" width="0" height="4" rx="2" fill="#6D28D9" opacity="0.85"><animate attributeName="width" from="0" to="220.8" dur="1.5s" begin="0.24s" fill="freeze" calcMode="spline" keySplines="0.4 0 0.2 1"/></rect><text x="660" y="95" font-family="IBM Plex Mono,JetBrains Mono,ui-monospace,SFMono-Regular,Menlo,Monaco,Consolas,monospace" font-size="11.5" letter-spacing="0.1em" fill="#1E293B">Next.js</text><rect x="660" y="100" width="276" height="4" rx="2" fill="#CBD5E1" opacity="0.4"/><rect x="660" y="100" width="0" height="4" rx="2" fill="#6D28D9" opacity="0.85"><animate attributeName="width" from="0" to="215.3" dur="1.5s" begin="0.32s" fill="freeze" calcMode="spline" keySplines="0.4 0 0.2 1"/></rect><text x="660" y="127" font-family="IBM Plex Mono,JetBrains Mono,ui-monospace,SFMono-Regular,Menlo,Monaco,Consolas,monospace" font-size="11.5" letter-spacing="0.1em" fill="#1E293B">Three.js</text><rect x="660" y="132" width="276" height="4" rx="2" fill="#CBD5E1" opacity="0.4"/><rect x="660" y="132" width="0" height="4" rx="2" fill="#6D28D9" opacity="0.85"><animate attributeName="width" from="0" to="234.6" dur="1.5s" begin="0.40s" fill="freeze" calcMode="spline" keySplines="0.4 0 0.2 1"/></rect><text x="660" y="159" font-family="IBM Plex Mono,JetBrains Mono,ui-monospace,SFMono-Regular,Menlo,Monaco,Consolas,monospace" font-size="11.5" letter-spacing="0.1em" fill="#1E293B">GLSL</text><rect x="660" y="164" width="276" height="4" rx="2" fill="#CBD5E1" opacity="0.4"/><rect x="660" y="164" width="0" height="4" rx="2" fill="#6D28D9" opacity="0.85"><animate attributeName="width" from="0" to="207.0" dur="1.5s" begin="0.48s" fill="freeze" calcMode="spline" keySplines="0.4 0 0.2 1"/></rect><text x="660" y="191" font-family="IBM Plex Mono,JetBrains Mono,ui-monospace,SFMono-Regular,Menlo,Monaco,Consolas,monospace" font-size="11.5" letter-spacing="0.1em" fill="#1E293B">TipTap</text><rect x="660" y="196" width="276" height="4" rx="2" fill="#CBD5E1" opacity="0.4"/><rect x="660" y="196" width="0" height="4" rx="2" fill="#6D28D9" opacity="0.85"><animate attributeName="width" from="0" to="179.4" dur="1.5s" begin="0.56s" fill="freeze" calcMode="spline" keySplines="0.4 0 0.2 1"/></rect><line x1="960" y1="12" x2="960" y2="208" stroke="#E2E8F0" stroke-width="1" opacity="0.4"/><rect x="980" y="16" width="280" height="22" rx="11" fill="#D977061a" stroke="#D9770655"/><text x="1120" y="31" text-anchor="middle" font-family="IBM Plex Mono,JetBrains Mono,ui-monospace,SFMono-Regular,Menlo,Monaco,Consolas,monospace" font-size="10" letter-spacing="0.22em" fill="#D97706">SCIENTIFIC</text><text x="980" y="63" font-family="IBM Plex Mono,JetBrains Mono,ui-monospace,SFMono-Regular,Menlo,Monaco,Consolas,monospace" font-size="11.5" letter-spacing="0.1em" fill="#1E293B">NumPy</text><rect x="980" y="68" width="276" height="4" rx="2" fill="#CBD5E1" opacity="0.4"/><rect x="980" y="68" width="0" height="4" rx="2" fill="#D97706" opacity="0.85"><animate attributeName="width" from="0" to="226.3" dur="1.5s" begin="0.36s" fill="freeze" calcMode="spline" keySplines="0.4 0 0.2 1"/></rect><text x="980" y="95" font-family="IBM Plex Mono,JetBrains Mono,ui-monospace,SFMono-Regular,Menlo,Monaco,Consolas,monospace" font-size="11.5" letter-spacing="0.1em" fill="#1E293B">Monte Carlo</text><rect x="980" y="100" width="276" height="4" rx="2" fill="#CBD5E1" opacity="0.4"/><rect x="980" y="100" width="0" height="4" rx="2" fill="#D97706" opacity="0.85"><animate attributeName="width" from="0" to="234.6" dur="1.5s" begin="0.44s" fill="freeze" calcMode="spline" keySplines="0.4 0 0.2 1"/></rect><text x="980" y="127" font-family="IBM Plex Mono,JetBrains Mono,ui-monospace,SFMono-Regular,Menlo,Monaco,Consolas,monospace" font-size="11.5" letter-spacing="0.1em" fill="#1E293B">BVH</text><rect x="980" y="132" width="276" height="4" rx="2" fill="#CBD5E1" opacity="0.4"/><rect x="980" y="132" width="0" height="4" rx="2" fill="#D97706" opacity="0.85"><animate attributeName="width" from="0" to="215.3" dur="1.5s" begin="0.52s" fill="freeze" calcMode="spline" keySplines="0.4 0 0.2 1"/></rect><text x="980" y="159" font-family="IBM Plex Mono,JetBrains Mono,ui-monospace,SFMono-Regular,Menlo,Monaco,Consolas,monospace" font-size="11.5" letter-spacing="0.1em" fill="#1E293B">WebAssembly</text><rect x="980" y="164" width="276" height="4" rx="2" fill="#CBD5E1" opacity="0.4"/><rect x="980" y="164" width="0" height="4" rx="2" fill="#D97706" opacity="0.85"><animate attributeName="width" from="0" to="165.6" dur="1.5s" begin="0.60s" fill="freeze" calcMode="spline" keySplines="0.4 0 0.2 1"/></rect><line x1="1280" y1="12" x2="1280" y2="208" stroke="#E2E8F0" stroke-width="1" opacity="0.4"/><rect x="1300" y="16" width="280" height="22" rx="11" fill="#0596691a" stroke="#05966955"/><text x="1440" y="31" text-anchor="middle" font-family="IBM Plex Mono,JetBrains Mono,ui-monospace,SFMono-Regular,Menlo,Monaco,Consolas,monospace" font-size="10" letter-spacing="0.22em" fill="#059669">COLLAB / CRDT</text><text x="1300" y="63" font-family="IBM Plex Mono,JetBrains Mono,ui-monospace,SFMono-Regular,Menlo,Monaco,Consolas,monospace" font-size="11.5" letter-spacing="0.1em" fill="#1E293B">Yjs</text><rect x="1300" y="68" width="276" height="4" rx="2" fill="#CBD5E1" opacity="0.4"/><rect x="1300" y="68" width="0" height="4" rx="2" fill="#059669" opacity="0.85"><animate attributeName="width" from="0" to="207.0" dur="1.5s" begin="0.48s" fill="freeze" calcMode="spline" keySplines="0.4 0 0.2 1"/></rect><text x="1300" y="95" font-family="IBM Plex Mono,JetBrains Mono,ui-monospace,SFMono-Regular,Menlo,Monaco,Consolas,monospace" font-size="11.5" letter-spacing="0.1em" fill="#1E293B">WebRTC</text><rect x="1300" y="100" width="276" height="4" rx="2" fill="#CBD5E1" opacity="0.4"/><rect x="1300" y="100" width="0" height="4" rx="2" fill="#059669" opacity="0.85"><animate attributeName="width" from="0" to="198.7" dur="1.5s" begin="0.56s" fill="freeze" calcMode="spline" keySplines="0.4 0 0.2 1"/></rect><text x="1300" y="127" font-family="IBM Plex Mono,JetBrains Mono,ui-monospace,SFMono-Regular,Menlo,Monaco,Consolas,monospace" font-size="11.5" letter-spacing="0.1em" fill="#1E293B">Supabase</text><rect x="1300" y="132" width="276" height="4" rx="2" fill="#CBD5E1" opacity="0.4"/><rect x="1300" y="132" width="0" height="4" rx="2" fill="#059669" opacity="0.85"><animate attributeName="width" from="0" to="193.2" dur="1.5s" begin="0.64s" fill="freeze" calcMode="spline" keySplines="0.4 0 0.2 1"/></rect><text x="1300" y="159" font-family="IBM Plex Mono,JetBrains Mono,ui-monospace,SFMono-Regular,Menlo,Monaco,Consolas,monospace" font-size="11.5" letter-spacing="0.1em" fill="#1E293B">Clerk</text><rect x="1300" y="164" width="276" height="4" rx="2" fill="#CBD5E1" opacity="0.4"/><rect x="1300" y="164" width="0" height="4" rx="2" fill="#059669" opacity="0.85"><animate attributeName="width" from="0" to="187.7" dur="1.5s" begin="0.72s" fill="freeze" calcMode="spline" keySplines="0.4 0 0.2 1"/></rect>
</svg>