<svg xmlns="http://www.w3.org/2000/svg" width="1200" height="360"
     viewBox="0 0 1200 360" fill="none" role="img" aria-label="SpectralMC project card">
  <defs><pattern id="cp-dark-spectralpathtracer" width="36" height="36" patternUnits="userSpaceOnUse"><path d="M36 0H0V36" stroke="#374151" stroke-opacity="0.15" stroke-width="0.8"/></pattern></defs><rect width="1200" height="360" rx="24" fill="#0C1220"/><rect width="1200" height="360" rx="24" fill="url(#cp-dark-spectralpathtracer)"/><rect width="1200" height="360" rx="24" stroke="#1B2D48" stroke-width="1.4" fill="none"/><defs><linearGradient id="cw-dark-spectralpathtracer" x1="0" y1="0" x2="360" y2="360" gradientUnits="userSpaceOnUse"><stop offset="0%" stop-color="#F59E0B" stop-opacity="0.12"/><stop offset="100%" stop-color="#F59E0B" stop-opacity="0.03"/></linearGradient></defs><rect x="0" y="0" width="360" height="360" rx="24" fill="url(#cw-dark-spectralpathtracer)"/><rect x="360" y="0" width="1" height="360" fill="#1B2D48" opacity="0.7"/>
  <g><line x1="20" y1="300" x2="340" y2="300" stroke="#334155" stroke-width="1.5" opacity="0.8"/><line x1="20" y1="60" x2="20" y2="300" stroke="#334155" stroke-width="1.5" opacity="0.7"/><line x1="340" y1="60" x2="340" y2="300" stroke="#334155" stroke-width="1.5" opacity="0.7"/><circle cx="220" cy="245" r="55" stroke="#64748B" stroke-width="1.5" fill="#F59E0B12"/><ellipse cx="220" cy="210" rx="42" ry="10" stroke="#64748B" stroke-width="0.8" fill="none" opacity="0.35"/>
<ellipse cx="220" cy="245" rx="55" ry="13" stroke="#64748B" stroke-width="0.8" fill="none" opacity="0.35"/>
<ellipse cx="220" cy="280" rx="42" ry="10" stroke="#64748B" stroke-width="0.8" fill="none" opacity="0.35"/><circle cx="120" cy="268" r="32" stroke="#64748B" stroke-width="1.2" fill="#7C3AED10" opacity="0.7"/><rect x="80" y="200" width="260" height="90" rx="3" stroke="#F59E0B" stroke-width="1.3" fill="none" stroke-dasharray="6 6" opacity="0.6"/><rect x="150" y="210" width="150" height="75" rx="2" stroke="#F59E0B" stroke-width="0.9" fill="none" stroke-dasharray="3 5" opacity="0.4"/><path d="M 30 30 L 220 190 L 340 100 L 280 40" stroke="#F59E0B" stroke-width="2" fill="none" stroke-dasharray="600" stroke-dashoffset="600"><animate attributeName="stroke-dashoffset" from="600" to="0" dur="2.5s" repeatCount="indefinite" calcMode="spline" keySplines="0.4 0 0.2 1"/></path><circle cx="30" cy="30" r="6" fill="#F59E0B" opacity="0.9"><animate attributeName="opacity" values="0.7;1;0.7" dur="2s" repeatCount="indefinite"/></circle><text x="42" y="34" font-family="IBM Plex Mono,JetBrains Mono,ui-monospace,SFMono-Regular,Menlo,Monaco,Consolas,monospace" font-size="9" fill="#F59E0B" letter-spacing="0.1em" opacity="0.7">LIGHT</text><circle cx="220" cy="190" r="3.5" fill="#F59E0B" opacity="0.7"/><circle cx="340" cy="100" r="3.5" fill="#F59E0B" opacity="0.7"/><rect x="30" y="322" width="14" height="20" rx="2" fill="#FB7185" opacity="0.6"/><rect x="48" y="322" width="14" height="20" rx="2" fill="#F59E0B" opacity="0.6"/><rect x="66" y="322" width="14" height="20" rx="2" fill="#34D399" opacity="0.6"/><rect x="84" y="322" width="14" height="20" rx="2" fill="#67E8F9" opacity="0.6"/><rect x="102" y="322" width="14" height="20" rx="2" fill="#60A5FA" opacity="0.6"/><rect x="120" y="322" width="14" height="20" rx="2" fill="#A78BFA" opacity="0.6"/><text x="30" y="314" font-family="IBM Plex Mono,JetBrains Mono,ui-monospace,SFMono-Regular,Menlo,Monaco,Consolas,monospace" font-size="8.5" fill="#94A3B8" letter-spacing="0.18em">SPECTRAL SAMPLES</text></g>
  <g><rect x="388" y="28" width="150" height="21" rx="10.5" fill="#F59E0B1a" stroke="#F59E0B55"/><text x="463" y="42.5" text-anchor="middle" font-family="IBM Plex Mono,JetBrains Mono,ui-monospace,SFMono-Regular,Menlo,Monaco,Consolas,monospace" font-size="10.5" letter-spacing="0.18em" fill="#F59E0B">RENDERING · C++17</text><rect x="547.5" y="28" width="82" height="21" rx="10.5" fill="#3341551a" stroke="#33415555"/><text x="588" y="42.5" text-anchor="middle" font-family="IBM Plex Mono,JetBrains Mono,ui-monospace,SFMono-Regular,Menlo,Monaco,Consolas,monospace" font-size="10.5" letter-spacing="0.18em" fill="#334155">BVH TREE</text><text x="388" y="94" font-family="Inter,ui-sans-serif,system-ui,-apple-system,BlinkMacSystemFont,Segoe UI,sans-serif" font-size="38" font-weight="700" letter-spacing="0.04em" fill="#F1F5F9">SpectralMC</text><text x="388" y="126" font-family="IBM Plex Mono,JetBrains Mono,ui-monospace,SFMono-Regular,Menlo,Monaco,Consolas,monospace" font-size="14.5" letter-spacing="0.1em" fill="#94A3B8">physically based spectral path tracer</text><line x1="388" y1="140" x2="1172" y2="140" stroke="#1B2D48" stroke-width="0.8" opacity="0.6"/><circle cx="394" cy="160" r="3" fill="#F59E0B" opacity="0.8"/><text x="406" y="164" font-family="IBM Plex Mono,JetBrains Mono,ui-monospace,SFMono-Regular,Menlo,Monaco,Consolas,monospace" font-size="12.5" letter-spacing="0.1em" fill="#E2E8F0">BVH acceleration — O(n log n) tree, SIMD traversal</text><circle cx="394" cy="186" r="3" fill="#F59E0B" opacity="0.8"/><text x="406" y="190" font-family="IBM Plex Mono,JetBrains Mono,ui-monospace,SFMono-Regular,Menlo,Monaco,Consolas,monospace" font-size="12.5" letter-spacing="0.1em" fill="#E2E8F0">Monte Carlo integration with stratified sampling</text><circle cx="394" cy="212" r="3" fill="#F59E0B" opacity="0.8"/><text x="406" y="216" font-family="IBM Plex Mono,JetBrains Mono,ui-monospace,SFMono-Regular,Menlo,Monaco,Consolas,monospace" font-size="12.5" letter-spacing="0.1em" fill="#E2E8F0">Spectral wavelength sampling · analytical validation</text><rect x="388" y="260" width="60" height="21" rx="10.5" fill="#0A1018" stroke="#253248"/><text x="418" y="274.5" text-anchor="middle" font-family="IBM Plex Mono,JetBrains Mono,ui-monospace,SFMono-Regular,Menlo,Monaco,Consolas,monospace" font-size="10.5" letter-spacing="0.18em" fill="#94A3B8">C++17</text>
<rect x="455.5" y="260" width="44" height="21" rx="10.5" fill="#0A1018" stroke="#253248"/><text x="478" y="274.5" text-anchor="middle" font-family="IBM Plex Mono,JetBrains Mono,ui-monospace,SFMono-Regular,Menlo,Monaco,Consolas,monospace" font-size="10.5" letter-spacing="0.18em" fill="#94A3B8">BVH</text>
<rect x="508.0" y="260" width="52" height="21" rx="10.5" fill="#0A1018" stroke="#253248"/><text x="534" y="274.5" text-anchor="middle" font-family="IBM Plex Mono,JetBrains Mono,ui-monospace,SFMono-Regular,Menlo,Monaco,Consolas,monospace" font-size="10.5" letter-spacing="0.18em" fill="#94A3B8">SIMD</text>
<rect x="568.0" y="260" width="67" height="21" rx="10.5" fill="#0A1018" stroke="#253248"/><text x="602" y="274.5" text-anchor="middle" font-family="IBM Plex Mono,JetBrains Mono,ui-monospace,SFMono-Regular,Menlo,Monaco,Consolas,monospace" font-size="10.5" letter-spacing="0.18em" fill="#94A3B8">OpenMP</text>
<rect x="643.0" y="260" width="60" height="21" rx="10.5" fill="#0A1018" stroke="#253248"/><text x="673" y="274.5" text-anchor="middle" font-family="IBM Plex Mono,JetBrains Mono,ui-monospace,SFMono-Regular,Menlo,Monaco,Consolas,monospace" font-size="10.5" letter-spacing="0.18em" fill="#94A3B8">CMake</text><rect x="1030" y="28" width="140" height="20" rx="10" fill="#0A1018" stroke="#253248"/><text x="1100" y="42" text-anchor="middle" font-family="IBM Plex Mono,JetBrains Mono,ui-monospace,SFMono-Regular,Menlo,Monaco,Consolas,monospace" font-size="9" letter-spacing="0.22em" fill="#64748B">SELECTED SYSTEM</text><circle cx="1172" cy="332" r="5" fill="#F59E0B" opacity="0.7"><animate attributeName="opacity" values="0.5;0.9;0.5" dur="3s" repeatCount="indefinite"/></circle></g>
</svg>